# xmcd
#
# Track frame offsets:
#	150
#	13222
#	24382
#
# Disc length: 487 seconds
#
# Revision: 0
# Processed by: cddbd v1.5.1PL2 Copyright (c) Steve Scherf et al.
# Submitted via: audiograbber 1.83.01
#
DISCID=1a01e503
DTITLE=Various Artist - Budwiser Blues Classics
DYEAR=1995
DGENRE=Blues
TTITLE0=Billy Holiday - That old devil called love
TTITLE1=Bo Diddley - Bo Diddley
TTITLE2=John Lee Hooker - I'm in the mood
EXTD=
EXTT0=
EXTT1=
EXTT2=
PLAYORDER=
